<svg width="28" height="28" viewBox="0 0 28 28" fill="none" xmlns="http://www.w3.org/2000/svg">
<circle cx="13.9961" cy="14" r="14.0039" fill="#00AFE3"/>
<path d="M8.08809 14.416C8.08809 13.328 8.33876 12.352 8.84009 11.488C9.35209 10.624 10.0401 9.952 10.9041 9.472C11.7788 8.98133 12.7334 8.736 13.7681 8.736C14.9521 8.736 16.0028 9.02933 16.9201 9.616C17.8481 10.192 18.5201 11.0133 18.9361 12.08H16.7441C16.4561 11.4933 16.0561 11.056 15.5441 10.768C15.0321 10.48 14.4401 10.336 13.7681 10.336C13.0321 10.336 12.3761 10.5013 11.8001 10.832C11.2241 11.1627 10.7708 11.6373 10.4401 12.256C10.1201 12.8747 9.96009 13.5947 9.96009 14.416C9.96009 15.2373 10.1201 15.9573 10.4401 16.576C10.7708 17.1947 11.2241 17.6747 11.8001 18.016C12.3761 18.3467 13.0321 18.512 13.7681 18.512C14.4401 18.512 15.0321 18.368 15.5441 18.08C16.0561 17.792 16.4561 17.3547 16.7441 16.768H18.9361C18.5201 17.8347 17.8481 18.656 16.9201 19.232C16.0028 19.808 14.9521 20.096 13.7681 20.096C12.7228 20.096 11.7681 19.856 10.9041 19.376C10.0401 18.8853 9.35209 18.208 8.84009 17.344C8.33876 16.48 8.08809 15.504 8.08809 14.416Z" fill="white"/>
</svg>
